<svg xmlns="http://www.w3.org/2000/svg" viewBox="0 0 48 48">
  <path d="M24.5 5 A 1.50015 1.50015 0 0 0 23.794922 5.1757812L8.7949219 13.175781 A 1.50015 1.50015 0 0 0 8.0507812 14.113281L4.0507812 29.113281 A 1.50015 1.50015 0 0 0 4.3945312 30.513672L15.394531 42.513672 A 1.50015 1.50015 0 0 0 16.5 43L33.5 43 A 1.50015 1.50015 0 0 0 34.787109 42.271484L43.787109 27.271484 A 1.50015 1.50015 0 0 0 44 26.5L44 6.5 A 1.50015 1.50015 0 0 0 42.5 5L24.5 5 z M 24.875 8L41 8L41 26.083984L32.650391 40L17.160156 40L7.1621094 29.091797L10.78125 15.517578L24.875 8 z" fill="#78909C" />
</svg>