<?xml version="1.0" encoding="utf-8"?>
<svg xmlns="http://www.w3.org/2000/svg" viewBox="0 0 26 26" width="208" height="208">
  <path d="M20.59375 -0.03125L12.90625 1C12.378906 1.070313 12.023438 1.570313 12.09375 2.09375L15.125 25.09375C15.195313 25.621094 15.691406 25.976563 16.21875 25.90625L23.875 24.90625C24.402344 24.835938 24.789063 24.339844 24.71875 23.8125L21.65625 0.8125C21.585938 0.285156 21.121094 -0.101563 20.59375 -0.03125 Z M 3 0C2.449219 0 2 0.449219 2 1L2 25C2 25.550781 2.449219 26 3 26L11 26C11.550781 26 12 25.550781 12 25L12 1C12 0.449219 11.550781 0 11 0 Z M 5 3L9 3L9 13L5 13 Z M 19.03125 3.125L20.3125 12.6875L16.46875 13.1875L15.21875 3.625 Z M 19.03125 17.625C20.671875 17.40625 22.15625 18.578125 22.375 20.21875C22.59375 21.859375 21.453125 23.375 19.8125 23.59375C18.167969 23.8125 16.65625 22.640625 16.4375 21C16.21875 19.355469 17.390625 17.84375 19.03125 17.625 Z M 7 17.90625C8.714844 17.90625 10.09375 19.285156 10.09375 21C10.09375 22.714844 8.714844 24.09375 7 24.09375C5.285156 24.09375 3.90625 22.714844 3.90625 21C3.90625 19.285156 5.285156 17.90625 7 17.90625 Z M 19.1875 18.875C18.230469 19.003906 17.558594 19.886719 17.6875 20.84375C17.816406 21.804688 18.695313 22.46875 19.65625 22.34375C20.617188 22.214844 21.285156 21.335938 21.15625 20.375C21.027344 19.414063 20.148438 18.746094 19.1875 18.875 Z M 7 19.1875C6 19.1875 5.1875 20 5.1875 21C5.1875 22 6 22.8125 7 22.8125C8 22.8125 8.8125 22 8.8125 21C8.8125 20 8 19.1875 7 19.1875Z" fill="#607D8B" />
</svg>