<svg xmlns="http://www.w3.org/2000/svg" viewBox="0 0 48 48">
  <path d="M35.322266 0.49609375C35.095331 0.49112733 34.857637 0.51436231 34.609375 0.57421875C33.616328 0.8136445 32.952717 1.5325549 32.349609 2.4179688C31.315033 3.9368149 29.948642 5.9475709 27.355469 7.9960938C26.038918 9.0366013 24.412386 10.130509 22.992188 10.994141C21.571987 11.857772 20.209095 12.524769 19.984375 12.597656C19.229762 12.842207 18.005568 13.354555 16.837891 13.900391C16.254052 14.173308 15.70399 14.447453 15.248047 14.708984C15.020075 14.83975 14.817911 14.962083 14.613281 15.117188C14.510966 15.194738 14.407223 15.278184 14.28125 15.414062C14.155277 15.549943 13.959205 15.716916 13.853516 16.220703C13.748994 16.7195 13.783713 17.055273 13.789062 17.330078C13.791263 17.442782 13.797169 17.393308 13.792969 17.466797C13.736289 17.528657 13.698819 17.572156 13.621094 17.652344C13.334821 17.947683 12.933785 18.337034 12.535156 18.714844C11.954495 19.265179 11.648318 19.539869 11.376953 19.787109C11.219395 19.783209 11.214085 19.775127 11.019531 19.779297C10.45072 19.791447 9.8610755 19.693347 8.9667969 20.208984C8.5630322 20.441792 8.360017 20.642571 8.0410156 20.919922C7.7220143 21.197273 7.3707142 21.519685 7.0410156 21.828125C6.3816185 22.445005 5.8007813 23.013672 5.8007812 23.013672 A 1.50015 1.50015 0 0 0 5.3691406 24.3125C5.3691406 24.3125 5.3613912 24.538228 5.3632812 24.673828C5.3412473 24.698498 5.3417221 24.702009 5.3144531 24.730469C5.1196187 24.933857 4.8074488 25.216294 4.4921875 25.482422C3.8616648 26.014677 3.2226563 26.488281 3.2226562 26.488281 A 1.50015 1.50015 0 0 0 2.7070312 27.179688C2.7070312 27.179688 2.3613161 28.12312 2.0449219 29.117188C1.8867247 29.61422 1.7352657 30.121295 1.6289062 30.576172C1.5757262 30.80361 1.5328572 31.010688 1.5097656 31.259766C1.4982196 31.384305 1.4863576 31.516073 1.5097656 31.722656C1.5331746 31.92924 1.5330796 32.284492 1.9980469 32.726562 A 1.50015 1.50015 0 0 0 2 32.728516C2.6460228 33.34028 3.0803991 33.187727 3.3300781 33.169922C3.5797571 33.152112 3.756731 33.110772 3.9394531 33.064453C4.3048974 32.971823 4.669797 32.847793 5.0390625 32.722656C5.408328 32.597519 5.7755884 32.471986 6.0644531 32.386719C6.1008221 32.375979 6.0783042 32.381717 6.1132812 32.373047C6.2008732 32.574882 6.2992007 32.832498 6.3769531 33.128906C6.3961511 33.202226 6.6034558 34.766876 6.7578125 36.087891C6.8349905 36.748398 6.9146418 37.397164 7.0058594 37.945312C7.0514684 38.219388 7.0974545 38.466684 7.1601562 38.707031C7.2228582 38.947379 7.1548763 39.118266 7.6132812 39.644531C7.9541493 40.035863 8.2061331 40.14803 8.4667969 40.294922C8.7274606 40.441813 8.9879618 40.568557 9.2285156 40.685547C9.4690695 40.802537 9.689007 40.909922 9.828125 40.986328C9.963914 41.060908 10.025561 41.18287 9.8046875 40.914062C10.146199 41.33187 10.382743 41.422597 10.638672 41.5625C10.894601 41.702403 11.15658 41.819216 11.423828 41.923828C11.691076 42.02844 11.958302 42.117903 12.222656 42.1875C12.48701 42.2571 12.666876 42.344904 13.181641 42.300781C14.034861 42.227651 14.261963 41.982515 14.679688 41.732422C14.888549 41.607375 15.085571 41.478017 15.291016 41.300781C15.378686 41.225151 15.472222 41.126562 15.574219 41.003906C15.81221 41.078746 16.054628 41.156863 16.275391 41.220703C16.392554 41.254583 16.501688 41.28499 16.623047 41.3125C16.744406 41.34001 16.748184 41.415506 17.261719 41.361328C17.683846 41.316788 17.780985 41.21912 17.884766 41.162109C17.988546 41.105099 18.054461 41.060224 18.117188 41.015625C18.242641 40.926425 18.345804 40.84013 18.457031 40.746094C18.567606 40.652604 18.688101 40.538982 18.804688 40.433594C18.867828 40.463114 18.93277 40.580718 18.988281 40.601562C19.347954 40.736618 19.450585 40.726196 19.660156 40.757812C19.869727 40.789432 20.10715 40.817796 20.373047 40.847656C20.904841 40.907376 21.544056 40.968748 22.164062 41.029297C22.709848 41.082597 23.205446 41.133292 23.615234 41.181641C23.641594 41.262411 23.654437 41.320414 23.685547 41.40625C23.789983 41.694397 23.912205 42.003346 24.132812 42.341797C24.264163 42.543312 24.489336 42.78253 24.791016 42.990234C24.802726 43.036884 24.804513 43.031774 24.814453 43.089844C24.864313 43.3811 24.873409 43.620865 24.886719 43.863281C24.880719 43.894551 24.876448 43.914714 24.867188 43.958984C24.834708 44.114206 24.785958 44.327911 24.736328 44.537109C24.641578 44.936542 24.553534 45.288225 24.544922 45.322266C24.544922 45.322266 24.462303 45.550367 24.476562 45.908203C24.483663 46.087121 24.505112 46.340112 24.685547 46.666016C24.865978 46.991919 25.29231 47.346109 25.707031 47.451172 A 1.50015 1.50015 0 0 0 25.714844 47.453125C25.71543 47.45327 25.923018 47.492144 26.007812 47.496094C26.092603 47.499994 26.163638 47.496526 26.226562 47.490234C26.352414 47.477734 26.441 47.454654 26.511719 47.433594C26.653157 47.391484 26.727673 47.352974 26.787109 47.322266C26.905981 47.260856 26.959666 47.221045 27.009766 47.185547C27.109965 47.114547 27.175489 47.06108 27.25 46.998047C27.399022 46.87198 27.563505 46.722116 27.753906 46.544922C28.134709 46.190533 28.60849 45.732785 29.078125 45.273438C29.935438 44.434902 30.631779 43.735712 30.771484 43.595703C30.936763 43.510253 31.377359 43.284206 32.023438 42.927734C32.401977 42.718876 32.792593 42.496766 33.132812 42.287109C33.302923 42.182281 33.459362 42.081709 33.609375 41.974609C33.759388 41.86751 33.882595 41.808654 34.121094 41.517578 A 1.50015 1.50015 0 0 0 34.279297 41.28125L35.017578 39.921875C35.233729 39.957485 35.457773 39.995465 35.6875 40.025391C35.953678 40.060061 36.15095 40.121989 36.640625 40.042969C37.432513 39.915416 37.39188 39.743015 37.578125 39.605469C37.76437 39.467923 37.944758 39.315249 38.142578 39.142578C38.538218 38.797236 38.987583 38.374853 39.421875 37.955078C40.290459 37.115528 41.095703 36.292969 41.095703 36.292969 A 1.50015 1.50015 0 0 0 40.458984 33.808594C40.458984 33.808594 40.105673 33.699511 39.748047 33.53125C39.39042 33.362989 39.202069 32.927557 39.40625 33.474609L39.427734 33.537109C39.248536 32.984396 39.206502 33.07462 39.103516 32.916016C39.000529 32.757411 38.876385 32.576778 38.732422 32.371094C38.444496 31.959725 38.079804 31.454812 37.712891 30.951172C37.345978 30.447531 36.9772 29.944948 36.689453 29.550781C36.401707 29.156615 36.116312 28.735501 36.201172 28.873047 A 1.50015 1.50015 0 0 0 36.199219 28.871094C36.193219 28.861394 36.031027 28.522455 35.794922 28.154297C35.668202 27.956704 35.481497 27.68084 35.189453 27.439453C35.521046 27.447353 35.888694 27.494469 36.078125 27.386719C36.36874 27.221402 36.483337 27.068493 36.570312 26.955078C36.744267 26.728248 36.79357 26.594204 36.853516 26.455078C36.973407 26.176826 37.057279 25.904746 37.150391 25.582031C37.336615 24.936602 37.529362 24.126044 37.710938 23.310547C37.913252 22.401899 37.962407 22.118186 38.087891 21.490234C38.143731 21.497934 38.198597 21.508925 38.253906 21.515625C38.50243 21.545725 38.664113 21.593356 39.09375 21.541016C39.814407 21.453216 40.027711 21.099447 40.166016 20.925781C40.30432 20.752115 40.367274 20.627233 40.427734 20.505859C40.548655 20.263112 40.631515 20.036417 40.71875 19.779297C40.893221 19.265057 41.06328 18.651475 41.222656 18.027344C41.382032 17.403213 41.527437 16.775949 41.638672 16.273438C41.749907 15.770926 41.809564 15.546945 41.855469 15.191406C41.964944 14.341359 41.697122 14.134899 41.550781 13.865234C41.404441 13.59557 41.24634 13.367251 41.09375 13.158203C41.01518 13.050562 41.01024 13.055905 40.9375 12.962891C40.98413 12.654789 41.01015 12.481245 41.087891 11.984375C41.137981 11.664201 41.186481 11.369019 41.232422 11.089844C41.662185 10.977651 42.212218 10.845594 42.783203 10.716797C44.008607 10.440383 45.234375 10.191406 45.234375 10.191406 A 1.50015 1.50015 0 0 0 46.355469 8.2441406C46.355469 8.2441406 46.154927 7.6425105 45.927734 7.0078125C45.814138 6.6904635 45.694043 6.366389 45.582031 6.0859375C45.526021 5.9457117 45.473223 5.8183444 45.414062 5.6914062C45.354903 5.5644681 45.406062 5.5154346 45.070312 5.1464844C45.246248 5.3398189 45.111922 5.1956604 45.044922 5.0996094C44.977922 5.0035584 44.882107 4.8653441 44.769531 4.703125C44.54438 4.3786867 44.248227 3.9586979 43.925781 3.5351562C43.603336 3.1116148 43.263319 2.6882062 42.884766 2.3164062C42.695489 2.1305064 42.501514 1.9539172 42.230469 1.7851562C41.959423 1.6163953 41.570305 1.3703408 40.886719 1.4804688C40.961839 1.4683678 39.964399 1.5083641 39.105469 1.4238281C38.246585 1.339338 37.286861 1.1106937 37.085938 1.0136719C36.588732 0.77358326 36.00307 0.51099301 35.322266 0.49609375 z M 35.310547 3.5214844C35.378268 3.5429112 35.524249 3.5907435 35.78125 3.7148438C36.748325 4.1818219 37.78918 4.3094417 38.8125 4.4101562C39.593105 4.4869832 40.165536 4.4704419 40.759766 4.4355469C40.774256 4.4487579 40.767063 4.4412272 40.783203 4.4570312C40.972181 4.6426377 41.261883 4.987479 41.539062 5.3515625C41.816243 5.715646 42.089057 6.1013914 42.304688 6.4121094C42.412501 6.5674684 42.506102 6.7047502 42.583984 6.8164062C42.617014 6.8637632 42.676184 6.931467 42.697266 6.9648438C42.716656 7.0067718 42.752212 7.092289 42.794922 7.1992188C42.839062 7.3097436 42.896322 7.4712376 42.949219 7.6132812C42.581017 7.6925453 42.539113 7.6971632 42.123047 7.7910156C41.491124 7.9335585 40.856054 8.0828247 40.345703 8.21875C40.090528 8.286713 39.872432 8.3488801 39.666016 8.4199219C39.562807 8.4554429 39.466214 8.4894619 39.328125 8.5566406C39.259085 8.5902296 39.180678 8.6271116 39.054688 8.71875C38.928697 8.810389 38.691576 8.9138298 38.5 9.4570312C38.382783 9.7893926 38.41849 9.7622893 38.394531 9.8886719C38.370581 10.015054 38.343403 10.164516 38.314453 10.335938C38.256553 10.678781 38.190313 11.104037 38.125 11.521484C37.994374 12.35638 37.873047 13.160156 37.873047 13.160156 A 1.50015 1.50015 0 0 0 38.224609 14.365234C38.224609 14.365234 38.456852 14.63583 38.669922 14.927734C38.731562 15.012184 38.764462 15.069039 38.810547 15.140625C38.779897 15.297605 38.771257 15.343663 38.708984 15.625C38.604001 16.09927 38.463452 16.701662 38.314453 17.285156C38.201963 17.725678 38.092831 18.093557 37.986328 18.441406C37.589051 18.371086 37.222656 18.294922 37.222656 18.294922 A 1.50015 1.50015 0 0 0 35.439453 19.480469C35.439453 19.480469 35.133052 21.086948 34.783203 22.658203C34.620358 23.389578 34.45028 24.084485 34.304688 24.605469C34.022399 24.662459 33.732135 24.716553 33.505859 24.833984C32.874159 25.161822 32.425378 25.623407 32.072266 26.113281C31.719153 26.603155 31.460421 27.116347 31.333984 27.71875C31.270764 28.019952 31.234776 28.352194 31.316406 28.755859C31.398036 29.159525 31.661016 29.674921 32.125 29.986328 A 1.50015 1.50015 0 0 0 33.478516 30.146484C33.534926 30.252299 33.556576 30.300761 33.648438 30.449219C33.838045 30.756251 33.976255 30.921247 34.267578 31.320312C34.559644 31.720396 34.926725 32.219437 35.289062 32.716797C35.651401 33.214156 36.009504 33.711915 36.275391 34.091797C36.408334 34.281738 36.518744 34.442339 36.587891 34.548828C36.647972 34.641352 36.681271 34.783072 36.595703 34.53125C36.818455 35.124618 37.125549 35.453586 37.443359 35.691406C37.389529 35.743786 37.392329 35.744256 37.337891 35.796875C36.923308 36.1976 36.49475 36.59928 36.169922 36.882812C36.089222 36.953252 36.048445 36.984488 35.984375 37.037109C35.815514 37.013119 35.615945 36.980089 35.390625 36.943359C35.130517 36.900959 34.861961 36.855799 34.580078 36.830078C34.298195 36.804348 34.138978 36.599121 33.328125 37.005859C32.528008 37.407213 32.315793 38.236299 32.291016 38.638672C32.290535 38.646472 32.293369 38.644574 32.292969 38.652344L31.785156 39.585938C31.721696 39.628817 31.657675 39.673318 31.558594 39.734375C31.290282 39.899719 30.928804 40.10514 30.574219 40.300781C29.865048 40.692065 29.185547 41.041016 29.185547 41.041016 A 1.50015 1.50015 0 0 0 28.808594 41.316406C28.808594 41.316406 28.173479 41.945208 27.716797 42.398438C27.666327 42.134772 27.619157 41.869096 27.472656 41.548828C27.350143 41.280992 27.051365 40.937456 26.630859 40.669922C26.614039 40.638492 26.560489 40.535485 26.505859 40.384766C26.444799 40.216287 26.385864 40.017866 26.337891 39.845703C26.290421 39.675333 26.349982 39.71792 26.164062 39.285156C25.912817 38.695812 25.626464 38.617642 25.482422 38.539062C25.33838 38.460482 25.254061 38.433726 25.181641 38.410156C25.0368 38.363016 24.944726 38.345842 24.84375 38.326172C24.641798 38.286832 24.431275 38.257352 24.185547 38.226562C23.694092 38.164972 23.079196 38.103919 22.455078 38.042969C21.911875 37.989919 21.390658 37.939776 20.933594 37.890625C20.902694 37.756155 21.004453 37.591637 20.945312 37.490234C20.685085 37.044055 20.391193 36.883941 20.142578 36.763672C19.893963 36.643403 19.664597 36.576199 19.369141 36.556641C19.073685 36.537081 18.633531 36.491551 18.091797 36.984375C17.831884 37.220986 17.54008 37.520908 17.105469 37.927734C16.980048 38.045137 16.880286 38.131278 16.767578 38.232422C16.652098 38.196612 16.557007 38.168902 16.429688 38.128906C16.173495 38.048426 15.910982 37.965761 15.667969 37.898438C15.546462 37.864778 15.431554 37.835234 15.298828 37.808594C15.166103 37.781954 15.144527 37.682262 14.572266 37.791016C13.683249 37.959969 13.397796 38.541108 13.236328 38.882812C13.193628 38.973172 13.200112 39.053489 13.169922 39.136719C13.154492 39.146619 13.155022 39.148413 13.138672 39.158203C13.031716 39.222241 12.94514 39.25442 12.929688 39.269531C12.81394 39.236823 12.66795 39.189723 12.517578 39.130859C12.346701 39.063969 12.179602 38.985159 12.078125 38.929688C11.976648 38.874218 11.928396 38.770315 12.128906 39.015625C11.746496 38.546427 11.521631 38.493735 11.273438 38.357422C11.025242 38.221109 10.77426 38.102666 10.539062 37.988281C10.335287 37.889181 10.162031 37.799725 10.019531 37.722656C10.001311 37.633677 9.9850649 37.57464 9.9648438 37.453125C9.8904362 37.005992 9.8116498 36.384852 9.7363281 35.740234C9.5856848 34.450999 9.5140989 33.265825 9.2792969 32.369141C9.162769 31.924912 9.0067762 31.340946 8.6699219 30.734375C8.3330676 30.127804 7.6056717 29.291374 6.4804688 29.28125C5.9204827 29.27625 5.601729 29.393611 5.2148438 29.507812C5.1637898 29.522883 5.1156308 29.540891 5.0644531 29.556641C5.2162247 29.106367 5.3294543 28.775108 5.3945312 28.59375C5.6341857 28.412498 5.901835 28.219328 6.4277344 27.775391C6.788598 27.470768 7.1563969 27.142987 7.4804688 26.804688C7.6425047 26.635538 7.7938539 26.466941 7.9414062 26.257812C8.0887096 26.049037 8.2834637 25.839927 8.34375 25.265625L8.34375 25.263672C8.374471 24.971235 8.3439012 24.960427 8.3398438 24.736328C8.5585368 24.524245 8.6951685 24.388633 9.0917969 24.017578C9.4057233 23.723893 9.7351581 23.422602 10.007812 23.185547C10.228233 22.993906 10.355637 22.904774 10.378906 22.880859C10.420165 22.897269 10.784746 22.785691 11.083984 22.779297C11.486923 22.770697 11.837891 22.794922 11.837891 22.794922 A 1.50015 1.50015 0 0 0 12.957031 22.412109C12.957031 22.412109 13.769367 21.679459 14.599609 20.892578C15.014731 20.499138 15.434101 20.092333 15.775391 19.740234C15.946036 19.564185 16.094666 19.40525 16.230469 19.244141C16.298369 19.163581 16.363098 19.083704 16.435547 18.978516C16.507997 18.873327 16.60499 18.802696 16.707031 18.394531C16.840472 17.861664 16.791636 17.560049 16.785156 17.287109C17.113145 17.101192 17.58754 16.862161 18.107422 16.619141C19.182745 16.116476 20.476769 15.591621 20.910156 15.451172C21.872436 15.139059 23.042934 14.474759 24.552734 13.556641C26.062534 12.638522 27.762348 11.499102 29.216797 10.349609C32.165622 8.0201776 33.796655 5.6245757 34.830078 4.1074219C35.093235 3.721085 35.248066 3.577398 35.310547 3.5214844 z M 16.789062 16.835938 A 1.50015 1.50015 0 0 0 16.791016 16.835938C16.790419 16.838738 16.789663 16.837044 16.789062 16.839844C16.788933 16.840443 16.789199 16.835238 16.789062 16.835938 z M 15.984375 40.019531C15.977975 40.128708 15.983985 40.088311 15.947266 40.166016C15.946066 40.168616 15.921342 40.182287 15.919922 40.185547C15.935082 40.106877 15.978605 40.117636 15.984375 40.019531 z" fill="#FFFFFF" />
</svg>