<svg xmlns="http://www.w3.org/2000/svg" viewBox="0 0 48 48">
  <path d="M7.5 5C5.0324991 5 3 7.0324991 3 9.5L3 36.5C3 38.967501 5.0324991 41 7.5 41L11.253906 41 A 1.50015 1.50015 0 0 0 11.740234 41L36.253906 41 A 1.50015 1.50015 0 0 0 36.740234 41L40.5 41C42.967501 41 45 38.967501 45 36.5L45 14.5C45 12.032499 42.967501 10 40.5 10L25.042969 10L20.574219 6.2753906 A 1.50015 1.50015 0 0 0 20.572266 6.2753906C19.584102 5.4521105 18.339162 5 17.052734 5L7.5 5 z M 7.5 8L17.052734 8C17.638307 8 18.202555 8.2053582 18.652344 8.5800781L23.539062 12.652344 A 1.50015 1.50015 0 0 0 24.5 13L40.5 13C41.346499 13 42 13.653501 42 14.5L42 36.5C42 37.346499 41.346499 38 40.5 38L38 38L38 36.5 A 1.50015 1.50015 0 0 0 36.476562 34.978516 A 1.50015 1.50015 0 0 0 35 36.5L35 38L13 38L13 36.5 A 1.50015 1.50015 0 0 0 11.476562 34.978516 A 1.50015 1.50015 0 0 0 10 36.5L10 38L7.5 38C6.6535009 38 6 37.346499 6 36.5L6 9.5C6 8.6535009 6.6535009 8 7.5 8 z M 19.115234 16.001953C18.898969 16.016562 18.681156 16.066297 18.472656 16.154297C18.472656 16.154297 17.868875 16.408906 17.671875 16.503906C17.671875 16.503906 17.669922 16.505859 17.669922 16.505859C15.980922 17.327859 15 18.244 15 20.5C15 23.012 16.64375 26.317109 19.21875 29.037109C19.36675 29.202109 19.498938 29.331062 19.585938 29.414062C19.668937 29.501062 19.799844 29.634203 19.964844 29.783203C22.683844 32.357203 25.988 34 28.5 34C30.756 34 31.672187 33.019172 32.492188 31.326172C32.492188 31.326172 32.494141 31.324219 32.494141 31.324219C32.589141 31.128219 32.84375 30.523437 32.84375 30.523438C33.19575 29.689438 32.943516 28.728875 32.228516 28.171875L29.978516 26.421875C29.241516 25.848875 28.206422 25.860172 27.482422 26.451172L26.091797 27.589844C25.583797 28.004844 24.895891 28.117 24.337891 27.875C23.512891 27.517 22.9555 27.086516 22.6875 26.853516C22.5965 26.765516 22.504109 26.677937 22.412109 26.585938C22.320109 26.493938 22.232531 26.401547 22.144531 26.310547C21.912531 26.042547 21.482047 25.485156 21.123047 24.660156C20.881047 24.102156 20.993203 23.41425 21.408203 22.90625L22.546875 21.515625C23.137875 20.792625 23.149172 19.757531 22.576172 19.019531L20.826172 16.769531C20.408422 16.233281 19.764031 15.958125 19.115234 16.001953 z" fill="#FFFFFF" />
</svg>