<svg xmlns="http://www.w3.org/2000/svg" viewBox="0 0 48 48">
  <path d="M10.5 6C7.467 6 5 8.468 5 11.5L5 36.5C5 39.532 7.467 42 10.5 42L24.056641 42C23.462641 41.073 22.979766 40.067047 22.634766 38.998047L10.5 38.998047C9.122 38.998047 8 37.877047 8 36.498047L8 15.998047L40 15.998047L40 22.998047C41.084 23.451047 42.088 24.053578 43 24.767578L43 11.5C43 8.468 40.533 6 37.5 6L10.5 6 z M 13.5 20 A 1.50015 1.50015 0 1 0 13.5 23L15.5 23 A 1.50015 1.50015 0 1 0 15.5 20L13.5 20 z M 21.5 20C20.672 20 20 20.671 20 21.5C20 22.329 20.672 23 21.5 23L29.998047 23C31.538047 22.357 33.227 22 35 22C35.302 22 35.597531 22.024922 35.894531 22.044922C35.960531 21.875922 36 21.693 36 21.5C36 20.671 35.328 20 34.5 20L21.5 20 z M 35 24C28.925 24 24 28.925 24 35C24 41.075 28.925 46 35 46C41.075 46 46 41.075 46 35C46 28.925 41.075 24 35 24 z M 13.5 26 A 1.50015 1.50015 0 1 0 13.5 29L15.5 29 A 1.50015 1.50015 0 1 0 15.5 26L13.5 26 z M 21.5 26C20.671 26 20 26.671 20 27.5C20 28.329 20.671 29 21.5 29L23.474609 29C24.049609 27.897 24.778813 26.889 25.632812 26L21.5 26 z M 34 28C34.552 28 35 28.448 35 29L35 35L40 35C40.552 35 41 35.448 41 36C41 36.552 40.552 37 40 37L34 37C33.448 37 33 36.552 33 36L33 29C33 28.448 33.448 28 34 28 z M 13.5 32 A 1.50015 1.50015 0 1 0 13.5 35L15.5 35 A 1.50015 1.50015 0 1 0 15.5 32L13.5 32 z M 21.5 32C20.671 32 20 32.671 20 33.5C20 34.329 20.671 35 21.5 35L22 35C22 33.966 22.133328 32.965 22.361328 32L21.5 32 z" fill="#607D8B" />
</svg>