<svg xmlns="http://www.w3.org/2000/svg" viewBox="0 0 48 48">
  <path d="M9.5273438 5 A 1.50015 1.50015 0 0 0 8 6.5L8 37.5C8 40.519774 10.480226 43 13.5 43L34.5 43C37.519774 43 40 40.519774 40 37.5L40 6.5 A 1.50015 1.50015 0 0 0 37.890625 5.1289062L33.96875 6.8730469L29.556641 5.1074219 A 1.50015 1.50015 0 0 0 28.443359 5.1074219L24 6.8847656L19.556641 5.1074219 A 1.50015 1.50015 0 0 0 18.443359 5.1074219L14.03125 6.8730469L10.109375 5.1289062 A 1.50015 1.50015 0 0 0 9.5273438 5 z M 19 8.1152344L23.443359 9.8925781 A 1.50015 1.50015 0 0 0 24.556641 9.8925781L29 8.1152344L33.443359 9.8925781 A 1.50015 1.50015 0 0 0 34.609375 9.8710938L37 8.8085938L37 37.5C37 38.898226 35.898226 40 34.5 40L13.5 40C12.101774 40 11 38.898226 11 37.5L11 8.8085938L13.390625 9.8710938 A 1.50015 1.50015 0 0 0 14.556641 9.8925781L19 8.1152344 z M 15.5 17 A 1.50015 1.50015 0 1 0 15.5 20L32.5 20 A 1.50015 1.50015 0 1 0 32.5 17L15.5 17 z M 15.5 26 A 1.50015 1.50015 0 1 0 15.5 29L24.5 29 A 1.50015 1.50015 0 1 0 24.5 26L15.5 26 z M 30.5 26 A 1.50015 1.50015 0 1 0 30.5 29L32.5 29 A 1.50015 1.50015 0 1 0 32.5 26L30.5 26 z M 15.5 32 A 1.50015 1.50015 0 1 0 15.5 35L24.5 35 A 1.50015 1.50015 0 1 0 24.5 32L15.5 32 z M 30.5 32 A 1.50015 1.50015 0 1 0 30.5 35L32.5 35 A 1.50015 1.50015 0 1 0 32.5 32L30.5 32 z" fill="#78909C" />
</svg>