<svg xmlns="http://www.w3.org/2000/svg" viewBox="0 0 48 48">
  <path d="M14.394531 6C11.986481 6 9.8462087 7.5805753 9.1386719 9.8828125L7.2011719 16.177734C6.323902 19.031289 8.5168504 22 11.501953 22L33.605469 22C36.01292 22 38.154421 20.419161 38.861328 18.117188L38.861328 18.115234L40.796875 11.824219L40.796875 11.822266C41.674145 8.9688031 39.481197 6 36.496094 6L14.394531 6 z M 14.394531 9L36.496094 9C37.546304 9 38.238802 9.9375655 37.929688 10.941406L35.992188 17.236328C35.668557 18.291424 34.709419 19 33.605469 19L11.501953 19C10.451743 19 9.7592455 18.062435 10.068359 17.058594L12.005859 10.765625C12.330323 9.7098622 13.290581 9 14.394531 9 z M 40.699219 18.894531C40.090219 20.695531 38.863016 22.137438 37.291016 23.023438L35.994141 27.234375C35.669141 28.290375 34.710469 29 33.605469 29L11.501953 29C11.020953 29 10.580922 28.777625 10.294922 28.390625C10.008922 28.003625 9.9263594 27.518594 10.068359 27.058594L11.017578 23.970703C9.9875781 23.895703 9.01525 23.586359 8.15625 23.068359L7.2011719 26.175781C6.7771719 27.554781 7.0258125 29.010875 7.8828125 30.171875C8.7398125 31.333875 10.058953 32 11.501953 32L33.605469 32C36.035469 32 38.148281 30.440188 38.863281 28.117188L40.800781 21.824219C41.102781 20.841219 41.056219 19.820531 40.699219 18.894531 z M 40.699219 28.894531C40.090219 30.695531 38.863016 32.137438 37.291016 33.023438L35.994141 37.234375C35.669141 38.290375 34.710469 39 33.605469 39L11.501953 39C11.020953 39 10.580922 38.777625 10.294922 38.390625C10.008922 38.003625 9.9263594 37.518594 10.068359 37.058594L11.017578 33.970703C9.9875781 33.895703 9.01525 33.586359 8.15625 33.068359L7.2011719 36.175781C6.7771719 37.554781 7.0258125 39.010875 7.8828125 40.171875C8.7398125 41.333875 10.058953 42 11.501953 42L33.605469 42C36.035469 42 38.148281 40.440188 38.863281 38.117188L40.800781 31.824219C41.102781 30.841219 41.056219 29.820531 40.699219 28.894531 z" fill="#FFFFFF" />
</svg>