<svg xmlns="http://www.w3.org/2000/svg" viewBox="0 0 48 48">
  <path d="M14.5 4C13.136406 4 12 5.1364058 12 6.5L12 9.3398438C12 10.594055 12.675258 11.756955 13.763672 12.378906L22.5 17.371094L22.5 17.904297C22.192042 18.143296 21.893426 18.411065 21.712891 18.816406L21.738281 18.761719L18.794922 24.71875L12.126953 25.701172 A 1.50015 1.50015 0 0 0 12.052734 25.714844C11.279461 25.868709 10.420889 26.525341 10.160156 27.478516C9.8399136 28.458544 10.176436 29.410811 10.736328 29.970703 A 1.50015 1.50015 0 0 0 10.759766 29.994141L15.591797 34.615234L14.472656 41.117188L14.480469 41.080078C14.298003 41.997085 14.651177 43.026075 15.587891 43.564453C16.361555 44.059979 17.325709 44.052481 17.998047 43.783203 A 1.50015 1.50015 0 0 0 18.128906 43.722656L24.101562 40.630859L30.074219 43.722656 A 1.50015 1.50015 0 0 0 30.095703 43.734375C30.609554 43.989664 31.078375 43.96875 31.234375 43.96875C31.80129 43.96875 32.196245 43.782649 32.339844 43.734375 A 1.50015 1.50015 0 0 0 32.759766 43.513672C33.523608 42.942006 33.970213 42.061379 33.708984 41.009766L33.730469 41.117188L32.613281 34.613281L37.443359 29.992188 A 1.50015 1.50015 0 0 0 37.824219 29.398438C37.975887 28.95841 38.14986 28.205225 37.800781 27.333984C37.464878 26.495297 36.758101 25.922183 35.986328 25.730469 A 1.50015 1.50015 0 0 0 35.84375 25.701172L29.175781 24.71875L26.232422 18.761719L26.257812 18.816406C26.083562 18.425129 25.794074 18.171825 25.5 17.935547L25.5 17.371094L34.236328 12.378906C35.324742 11.756955 36 10.594055 36 9.3398438L36 6.5C36 5.1364058 34.863594 4 33.5 4L14.5 4 z M 15 7L33 7L33 9.3398438C33 9.5216321 32.90563 9.6833886 32.748047 9.7734375L24 14.771484L15.251953 9.7734375C15.094367 9.6833886 15 9.521632 15 9.3398438L15 7 z M 23.970703 21.019531 A 1.50015 1.50015 0 0 0 24.001953 21.021484L26.833984 26.753906 A 1.50015 1.50015 0 0 0 27.960938 27.572266L34.609375 28.552734L29.962891 32.998047 A 1.50015 1.50015 0 0 0 29.521484 34.335938L30.601562 40.617188L24.791016 37.609375 A 1.50015 1.50015 0 0 0 23.412109 37.609375L17.603516 40.617188L18.683594 34.337891 A 1.50015 1.50015 0 0 0 18.242188 33L13.5625 28.523438L20.009766 27.572266 A 1.50015 1.50015 0 0 0 21.136719 26.753906L23.970703 21.019531 z" fill="#FFFFFF" />
</svg>