<svg xmlns="http://www.w3.org/2000/svg" viewBox="0 0 48 48">
  <path d="M12.5 4C10.019 4 8 6.019 8 8.5L8 39.5C8 41.981 10.019 44 12.5 44L25.632812 44C24.777812 43.111 24.050609 42.103 23.474609 41L12.5 41C11.673 41 11 40.327 11 39.5L11 8.5C11 7.673 11.673 7 12.5 7L24 7L24 15.5C24 17.981 26.019 20 28.5 20L37 20L37 22.169922C38.045 22.331922 39.053 22.603047 40 22.998047L40 18.498047C40 18.084047 39.832047 17.710953 39.560547 17.439453L26.560547 4.4394531C26.289047 4.1680781 25.914 4 25.5 4L12.5 4 z M 27 9.1210938L34.876953 16.998047L28.5 16.998047C27.673 16.998047 27 16.325047 27 15.498047L27 9.1210938 z M 35 24C28.925 24 24 28.925 24 35C24 41.075 28.925 46 35 46C41.075 46 46 41.075 46 35C46 28.925 41.075 24 35 24 z M 17.5 25C16.672 25 16 25.672 16 26.5C16 27.328 16.672 28 17.5 28L24.056641 28C24.780641 26.87 25.667312 25.855 26.695312 25L17.5 25 z M 17.5 32C16.672 32 16 32.672 16 33.5C16 34.328 16.672 35 17.5 35L22 35C22 33.966 22.133328 32.965 22.361328 32L17.5 32 z M 28 34L42 34C42.552 34 43 34.448 43 35C43 35.552 42.552 36 42 36L28 36C27.448 36 27 35.552 27 35C27 34.448 27.448 34 28 34 z" fill="#FFFFFF" />
</svg>