<svg xmlns="http://www.w3.org/2000/svg" viewBox="0 0 48 48">
  <path d="M12.5 4C10.019 4 8 6.019 8 8.5L8 39.5C8 41.981 10.019 44 12.5 44L25.619141 44C24.766141 43.111 24.038844 42.102 23.464844 41L12.5 41C11.673 41 11 40.327 11 39.5L11 8.5C11 7.673 11.673 7 12.5 7L24 7L24 15.5C24 17.981 26.019 20 28.5 20L37 20L37 22.152344C38.046 22.314344 39.052 22.600094 40 22.996094L40 18.5C40 18.0855 39.832047 17.710828 39.560547 17.439453L26.560547 4.4394531C26.289047 4.1680781 25.914 4 25.5 4L12.5 4 z M 27 9.1210938L34.878906 17L28.5 17C27.673 17 27 16.327 27 15.5L27 9.1210938 z M 35 24C28.925 24 24 28.925 24 35C24 41.075 28.925 46 35 46C41.075 46 46 41.075 46 35C46 28.925 41.075 24 35 24 z M 17.5 25C16.672 25 16 25.671 16 26.5C16 27.329 16.672 28 17.5 28L24.042969 28C24.767969 26.868 25.662406 25.856 26.691406 25L17.5 25 z M 17.5 32C16.672 32 16 32.671 16 33.5C16 34.329 16.672 35 17.5 35L22 35C22 33.967 22.120656 32.963 22.347656 32L17.5 32 z M 28 34L42 34C42.552 34 43 34.448 43 35C43 35.552 42.552 36 42 36L28 36C27.448 36 27 35.552 27 35C27 34.448 27.448 34 28 34 z" fill="#78909C" />
</svg>