<svg xmlns="http://www.w3.org/2000/svg" viewBox="0 0 48 48">
  <path d="M12.5 4C10.019 4 8 6.019 8 8.5L8 39.5C8 41.981 10.019 44 12.5 44L25.640625 44C24.785625 43.111 24.055516 42.103 23.478516 41L12.5 41C11.673 41 11 40.327 11 39.5L11 8.5C11 7.673 11.673 7 12.5 7L24 7L24 15.5C24 17.981 26.019 20 28.5 20L37 20L37 22.169922C38.045 22.331922 39.053 22.606906 40 23.003906L40 18.5C40 18.0855 39.831922 17.710828 39.560547 17.439453L26.560547 4.4394531C26.289172 4.1680781 25.9145 4 25.5 4L12.5 4 z M 27 9.1210938L34.878906 17L28.5 17C27.673 17 27 16.327 27 15.5L27 9.1210938 z M 35 24C28.925 24 24 28.925 24 35C24 41.075 28.925 46 35 46C41.075 46 46 41.075 46 35C46 28.925 41.075 24 35 24 z M 41 30C41.25575 30 41.511531 30.097469 41.707031 30.292969C42.098031 30.683969 42.098031 31.316031 41.707031 31.707031L33.707031 39.707031C33.512031 39.902031 33.256 40 33 40C32.744 40 32.487969 39.902031 32.292969 39.707031L28.292969 35.707031C27.901969 35.316031 27.901969 34.683969 28.292969 34.292969C28.683969 33.901969 29.316031 33.901969 29.707031 34.292969L33 37.585938L40.292969 30.292969C40.488469 30.097469 40.74425 30 41 30 z" fill="#78909C" />
</svg>