<svg xmlns="http://www.w3.org/2000/svg" viewBox="0 0 48 48">
  <path d="M10.837891 1.828125 A 1.50015 1.50015 0 0 0 10.03125 2.0742188C6.8341804 4.1157593 4.1157594 6.8341804 2.0742188 10.03125 A 1.5005268 1.5005268 0 1 0 4.6035156 11.646484C6.409975 8.8175544 8.8175544 6.409975 11.646484 4.6035156 A 1.50015 1.50015 0 0 0 10.837891 1.828125 z M 37.117188 1.828125 A 1.50015 1.50015 0 0 0 36.353516 4.6035156C39.182446 6.409975 41.590025 8.8175544 43.396484 11.646484 A 1.5005269 1.5005269 0 1 0 45.925781 10.03125C43.884241 6.8341804 41.16582 4.1157594 37.96875 2.0742188 A 1.50015 1.50015 0 0 0 37.117188 1.828125 z M 24 4C12.972066 4 4 12.972074 4 24C4 29.991346 6.6622451 35.360646 10.849609 39.029297L8.4394531 41.439453 A 1.50015 1.50015 0 1 0 10.560547 43.560547L13.271484 40.849609C16.375908 42.833447 20.050508 44 24 44C27.949492 44 31.624092 42.833447 34.728516 40.849609L37.439453 43.560547 A 1.50015 1.50015 0 1 0 39.560547 41.439453L37.150391 39.029297C41.337755 35.360646 44 29.991346 44 24C44 12.972074 35.027934 4 24 4 z M 24 7C33.406615 7 41 14.593391 41 24C41 33.406609 33.406615 41 24 41C14.593385 41 7 33.406609 7 24C7 14.593391 14.593385 7 24 7 z M 22.476562 11.978516 A 1.50015 1.50015 0 0 0 21 13.5L21 25.5 A 1.50015 1.50015 0 0 0 22.5 27L30.5 27 A 1.50015 1.50015 0 1 0 30.5 24L24 24L24 13.5 A 1.50015 1.50015 0 0 0 22.476562 11.978516 z" fill="#78909C" />
</svg>