<svg xmlns="http://www.w3.org/2000/svg" viewBox="0 0 48 48">
  <path d="M12.5 4C10.032499 4 8 6.0324991 8 8.5L8 39.5C8 41.967501 10.032499 44 12.5 44L35.5 44C37.967501 44 40 41.967501 40 39.5L40 18.5 A 1.50015 1.50015 0 0 0 39.560547 17.439453L39.544922 17.423828L26.560547 4.4394531 A 1.50015 1.50015 0 0 0 25.5 4L12.5 4 z M 12.5 7L24 7L24 15.5C24 17.967501 26.032499 20 28.5 20L37 20L37 39.5C37 40.346499 36.346499 41 35.5 41L12.5 41C11.653501 41 11 40.346499 11 39.5L11 8.5C11 7.6535009 11.653501 7 12.5 7 z M 27 9.1210938L34.878906 17L28.5 17C27.653501 17 27 16.346499 27 15.5L27 9.1210938 z M 19 22.998047C18.391 22.998047 17.841328 23.365687 17.611328 23.929688L13.111328 34.929688C12.797328 35.696688 13.164641 36.573719 13.931641 36.886719C14.698641 37.202719 15.575672 36.834406 15.888672 36.066406L16.326172 34.998047L21.673828 34.998047L22.111328 36.066406C22.349328 36.647406 22.909 36.998047 23.5 36.998047C23.689 36.998047 23.881359 36.963719 24.068359 36.886719C24.834359 36.573719 25.202672 35.696688 24.888672 34.929688L20.388672 23.929688C20.158672 23.365688 19.609 22.998047 19 22.998047 z M 30.476562 23.978516 A 1.50015 1.50015 0 0 0 29 25.5L29 27L27.5 27 A 1.50015 1.50015 0 1 0 27.5 30L29 30L29 31.5 A 1.50015 1.50015 0 1 0 32 31.5L32 30L33.5 30 A 1.50015 1.50015 0 1 0 33.5 27L32 27L32 25.5 A 1.50015 1.50015 0 0 0 30.476562 23.978516 z M 19 28.460938L20.447266 31.998047L17.552734 31.998047L19 28.460938 z" fill="#78909C" />
</svg>