<svg xmlns="http://www.w3.org/2000/svg" viewBox="0 0 48 48">
  <path d="M8.5 5C6.032 5 4 7.032 4 9.5L4 30.5C4 32.968 6.032 35 8.5 35L17 35L17 40L13.5 40C12.672 39.988 11.989516 40.649516 11.978516 41.478516C11.967516 42.307516 12.628031 42.989 13.457031 43L13.5 43L18.253906 43C18.414906 43.026 18.579234 43.026 18.740234 43L26.943359 43C26.405359 42.356 26.000734 41.594187 25.802734 40.742188L25.578125 40L20 40L20 35L24.072266 35L23.332031 32.537109L23.300781 32.433594L23.28125 32.328125C23.26125 32.219125 23.268859 32.11 23.255859 32L8.5 32C7.654 32 7 31.346 7 30.5L7 9.5C7 8.654 7.654 8 8.5 8L39.5 8C40.346 8 41 8.654 41 9.5L41 16.255859C41.763 16.133859 42.546047 16.037953 43.373047 16.001953L43.451172 16L43.482422 16C43.657422 16 43.83 16.017969 44 16.042969L44 9.5C44 7.032 41.968 5 39.5 5L8.5 5 z M 30.482422 17.6875C28.210844 17.61866 26.205078 18.029297 26.205078 18.029297 A 1.50015 1.50015 0 0 0 25.003906 19.400391C24.712357 23.773623 26.566682 26.951393 28.410156 29.001953L27.705078 29.001953C26.170132 29.001953 24.96602 30.452708 25.248047 31.960938L25.261719 32.041016L27.757812 40.302734L27.720703 40.146484C28.030312 41.791914 29.486098 43 31.160156 43L37.839844 43C39.514163 43 40.973173 41.791092 41.28125 40.144531L41.242188 40.302734L43.738281 32.041016L43.751953 31.960938C43.97748 30.754862 43.246469 29.597846 42.162109 29.177734C43.835565 27.4195 44.688855 25.476636 45.023438 23.792969C45.541212 21.187451 44.941406 19.087891 44.941406 19.087891 A 1.50015 1.50015 0 0 0 43.488281 18 A 1.50015 1.50015 0 0 0 43.435547 18.001953C40.43887 18.132402 38.125529 18.923216 36.375 20.039062C35.755215 19.208536 34.879782 18.648924 34 18.310547C32.842177 17.86523 31.618211 17.721918 30.482422 17.6875 z M 29.611328 20.6875C29.835621 20.679517 30.090977 20.678361 30.392578 20.6875C31.319289 20.71558 32.251573 20.85352 32.921875 21.111328C33.546975 21.351752 33.885422 21.632168 34.076172 22.011719C33.437111 22.749161 32.942369 23.530213 32.582031 24.306641C31.966122 25.633753 31.695554 26.925396 31.574219 27.964844C30.137031 26.680768 28.246599 24.358751 28.050781 20.871094C28.548066 20.798951 28.938449 20.71145 29.611328 20.6875 z M 42.191406 21.205078C42.221556 21.762088 42.241886 22.402624 42.082031 23.207031C41.717134 25.043254 40.68829 27.224888 37.511719 29.001953L34.5 29.001953C34.532566 28.18803 34.678283 26.913877 35.302734 25.568359C36.200626 23.633654 38.010091 21.750416 42.191406 21.205078 z M 28.384766 32.001953L32.3125 32.001953 A 1.50015 1.50015 0 0 0 32.757812 32.001953L37.677734 32.001953 A 1.50015 1.50015 0 0 0 38.101562 32.001953L40.615234 32.001953L38.345703 39.513672L38.332031 39.59375C38.286107 39.839188 38.091525 40 37.839844 40L31.160156 40C30.910214 40 30.714363 39.838366 30.667969 39.591797L30.652344 39.511719L28.384766 32.001953 z" fill="#78909C" />
</svg>