<svg xmlns="http://www.w3.org/2000/svg" viewBox="0 0 48 48">
  <path d="M13 7C11.125 7 9.5288151 7.7571335 8.5039062 8.9101562C7.4789976 10.063179 7 11.541667 7 13C7 14.458333 7.4789975 15.936821 8.5039062 17.089844C9.5288151 18.242867 11.125 19 13 19C14.875 19 16.471185 18.242867 17.496094 17.089844C18.521003 15.936821 19 14.458333 19 13C19 11.541667 18.521003 10.063179 17.496094 8.9101562C16.471185 7.7571335 14.875 7 13 7 z M 35 7C33.125 7 31.528815 7.7571335 30.503906 8.9101562C29.478997 10.063179 29 11.541667 29 13C29 14.458333 29.478997 15.936821 30.503906 17.089844C31.528815 18.242867 33.125 19 35 19C36.875 19 38.471185 18.242867 39.496094 17.089844C40.521003 15.936821 41 14.458333 41 13C41 11.541667 40.521003 10.063179 39.496094 8.9101562C38.471185 7.7571335 36.875 7 35 7 z M 13 10C14.124999 10 14.778816 10.367867 15.253906 10.902344C15.728997 11.436821 16 12.208333 16 13C16 13.791667 15.728997 14.563179 15.253906 15.097656C14.778816 15.632133 14.124999 16 13 16C11.875001 16 11.221184 15.632133 10.746094 15.097656C10.271003 14.563179 10 13.791667 10 13C10 12.208333 10.271003 11.436821 10.746094 10.902344C11.221184 10.367867 11.875001 10 13 10 z M 35 10C36.124999 10 36.778816 10.367867 37.253906 10.902344C37.728997 11.436821 38 12.208333 38 13C38 13.791667 37.728997 14.563179 37.253906 15.097656C36.778816 15.632133 36.124999 16 35 16C33.875001 16 33.221184 15.632133 32.746094 15.097656C32.271003 14.563179 32 13.791667 32 13C32 12.208333 32.271003 11.436821 32.746094 10.902344C33.221184 10.367867 33.875001 10 35 10 z M 24 17C22.125 17 20.528815 17.757133 19.503906 18.910156C18.478997 20.063179 18 21.541667 18 23C18 24.458333 18.478997 25.936821 19.503906 27.089844C20.528815 28.242867 22.125 29 24 29C25.875 29 27.471185 28.242867 28.496094 27.089844C29.521003 25.936821 30 24.458333 30 23C30 21.541667 29.521003 20.063179 28.496094 18.910156C27.471185 17.757133 25.875 17 24 17 z M 24 20C25.124999 20 25.778816 20.367867 26.253906 20.902344C26.728997 21.436821 27 22.208333 27 23C27 23.791667 26.728997 24.563179 26.253906 25.097656C25.778816 25.632133 25.124999 26 24 26C22.875001 26 22.221184 25.632133 21.746094 25.097656C21.271003 24.563179 21 23.791667 21 23C21 22.208333 21.271003 21.436821 21.746094 20.902344C22.221184 20.367867 22.875001 20 24 20 z M 7.5 21C5.57 21 4 22.57 4 24.5L4 27C4 30.36 7.95 33 13 33L13.210938 33C13.660937 31.39 14.839375 30.079688 16.359375 29.429688C15.409375 29.779688 14.26 30 13 30C9.57 30 7 28.42 7 27L7 24.5C7 24.22 7.22 24 7.5 24L16.060547 24C16.020547 23.67 16 23.34 16 23C16 22.31 16.09 21.64 16.25 21L7.5 21 z M 31.75 21C31.91 21.64 32 22.31 32 23C32 23.34 31.979453 23.67 31.939453 24L40.5 24C40.78 24 41 24.22 41 24.5L41 27C41 28.42 38.43 30 35 30C33.74 30 32.590625 29.779688 31.640625 29.429688C33.160625 30.079687 34.339063 31.39 34.789062 33L35 33C40.05 33 44 30.36 44 27L44 24.5C44 22.57 42.43 21 40.5 21L31.75 21 z M 18.5 31C16.585045 31 15 32.585045 15 34.5L15 37C15 38.918154 16.279921 40.481204 17.925781 41.46875C19.571641 42.456296 21.68576 43 24 43C26.31424 43 28.428359 42.456296 30.074219 41.46875C31.720079 40.481204 33 38.918154 33 37L33 34.5C33 32.585045 31.414955 31 29.5 31L18.5 31 z M 18.5 34L29.5 34C29.795045 34 30 34.204955 30 34.5L30 37C30 37.566846 29.59989 38.255281 28.53125 38.896484C27.46261 39.537688 25.82776 40 24 40C22.17224 40 20.53739 39.537688 19.46875 38.896484C18.40011 38.255281 18 37.566846 18 37L18 34.5C18 34.204955 18.204955 34 18.5 34 z" fill="#78909C" />
</svg>