<?xml version="1.0" encoding="utf-8"?>
<svg xmlns="http://www.w3.org/2000/svg" viewBox="0 0 48 48" width="144" height="144">
  <path d="M39.5,7h-31C5.467,7,3,9.467,3,12.5v23C3,38.533,5.467,41,8.5,41h31c3.033,0,5.5-2.467,5.5-5.5v-23C45,9.467,42.533,7,39.5,7z M30.971,25.749l-9,5C21.669,30.916,21.334,31,21,31c-0.351,0-0.702-0.092-1.014-0.276C19.375,30.364,19,29.708,19,29V19c0-0.708,0.375-1.364,0.986-1.724c0.61-0.359,1.366-0.369,1.985-0.025l9,5C31.606,22.604,32,23.273,32,24S31.606,25.396,30.971,25.749z" fill="#FFFFFF" />
</svg>