<svg xmlns="http://www.w3.org/2000/svg" viewBox="0 0 48 48">
  <path d="M22.998047 4C17.492964 4 12.998047 8.494921 12.998047 14C12.998047 19.505079 17.492964 24 22.998047 24C28.50313 24 32.998047 19.505079 32.998047 14C32.998047 8.494921 28.50313 4 22.998047 4 z M 22.998047 7C26.881811 7 29.998047 10.116238 29.998047 14C29.998047 17.883762 26.881811 21 22.998047 21C19.114283 21 15.998047 17.883762 15.998047 14C15.998047 10.116238 19.114283 7 22.998047 7 z M 32.134766 23.308594C31.947516 23.283469 31.753672 23.311078 31.576172 23.392578C31.230172 23.555578 31 23.910922 31 24.294922L31 41.296875C31 41.719875 31.267109 42.092328 31.662109 42.236328C32.055109 42.379328 32.499578 42.266453 32.767578 41.939453L35.742188 38.367188L38.697266 44.873047C39.135266 45.835047 40.265469 46.264031 41.230469 45.832031L42.179688 45.40625C43.151688 44.97125 43.582578 43.829328 43.142578 42.861328L40.158203 36.400391L44.998047 36.400391C45.421047 36.400391 45.795453 36.034625 45.939453 35.640625C46.083453 35.246625 45.967391 34.805109 45.650391 34.537109L32.650391 23.535156C32.501891 23.410156 32.322016 23.333719 32.134766 23.308594 z M 10.978516 28C8.7845156 28 6.9980469 29.784516 6.9980469 31.978516L6.9980469 33.5C6.9980469 36.812 8.8846406 39.6745 12.306641 41.5625C15.154641 43.1345 18.950047 44 22.998047 44C25.002047 44 27.044656 43.772406 28.972656 43.316406L28.972656 40.222656C27.114656 40.736656 25.052047 41 22.998047 41C16.538047 41 9.9980469 38.424 9.9980469 33.5L9.9980469 31.978516C9.9980469 31.438516 10.438516 31 10.978516 31L28.972656 31L28.972656 28L10.978516 28 z" fill="#FFFFFF" />
</svg>