<svg xmlns="http://www.w3.org/2000/svg" viewBox="0 0 48 48">
  <path d="M9 6C7.343 6 6 7.343 6 9L6 39C6 40.657 7.343 42 9 42L19 42C20.657 42 22 40.657 22 39L22 9C22 7.343 20.657 6 19 6L9 6 z M 29 6C27.343 6 26 7.343 26 9L26 39C26 40.657 27.343 42 29 42L39 42C40.657 42 42 40.657 42 39L42 9C42 7.343 40.657 6 39 6L29 6 z M 9 9L19 9L19 39L9 39L9 9 z M 29 9L39 9L39 39L29 39L29 9 z M 14 12C12.895 12 12 12.895 12 14L12 27C12 28.105 12.895 29 14 29C15.105 29 16 28.105 16 27L16 14C16 12.895 15.105 12 14 12 z M 34 12C32.895 12 32 12.895 32 14L32 27C32 28.105 32.895 29 34 29C35.105 29 36 28.105 36 27L36 14C36 12.895 35.105 12 34 12 z M 14 32C12.895 32 12 32.895 12 34C12 35.105 12.895 36 14 36C15.105 36 16 35.105 16 34C16 32.895 15.105 32 14 32 z M 34 32C32.895 32 32 32.895 32 34C32 35.105 32.895 36 34 36C35.105 36 36 35.105 36 34C36 32.895 35.105 32 34 32 z" fill="#FFFFFF" />
</svg>