<svg xmlns="http://www.w3.org/2000/svg" viewBox="0 0 50 50">
  <path d="M25 2C17.832031 2 12 7.832031 12 15C12 24.523438 23.707031 39.957031 24.203125 40.609375L25 41.644531L25.796875 40.609375C26.292969 39.957031 38 24.523438 38 15C38 7.832031 32.167969 2 25 2 Z M 25 11C27.210938 11 29 12.789063 29 15C29 17.210938 27.210938 19 25 19C22.789063 19 21 17.210938 21 15C21 12.789063 22.789063 11 25 11 Z M 7.296875 32L1.578125 48L48.421875 48L42.703125 32L35.050781 32C34.660156 32.6875 34.269531 33.355469 33.878906 34L41.296875 34L45.578125 46L4.421875 46L8.703125 34L16.121094 34C15.730469 33.355469 15.339844 32.6875 14.949219 32Z" fill="#424242" />
</svg>