<svg xmlns="http://www.w3.org/2000/svg" viewBox="0 0 48 48">
  <path d="M28.433594 5.7929688C27.424594 5.8450938 26.409281 6.116375 25.425781 6.609375L22.591797 8.2480469 A 1.50015 1.50015 0 0 0 22.5 8.2460938L3.5 8.2460938 A 1.50015 1.50015 0 1 0 3.5 11.246094L16.251953 11.246094L15.699219 11.480469L15.611328 11.517578 A 1.50015 1.50015 0 0 0 15.515625 11.560547C15.459205 11.588757 15.411777 11.625919 15.357422 11.65625C15.217048 11.734466 15.075451 11.812248 14.947266 11.904297C14.898186 11.939783 14.857544 11.982231 14.810547 12.019531C14.681905 12.1207 14.555825 12.223482 14.441406 12.337891C14.430611 12.348824 14.422762 12.36201 14.412109 12.373047C13.662817 13.139256 13.238921 14.176938 13.238281 15.294922C13.237123 15.449313 13.236144 15.603726 13.251953 15.755859C13.252634 15.762413 13.255145 15.768838 13.255859 15.775391C13.256144 15.77802 13.25557 15.780573 13.255859 15.783203C13.26093 15.82939 13.274773 15.87227 13.28125 15.917969C13.303403 16.070229 13.327622 16.222564 13.367188 16.373047C13.630162 17.414826 14.266127 18.290886 15.144531 18.853516C15.14608 18.854524 15.146887 18.856415 15.148438 18.857422C15.313441 18.9628 15.488838 19.054662 15.669922 19.136719C15.695005 19.148232 15.716761 19.164733 15.742188 19.175781C15.925052 19.254318 16.117562 19.316151 16.314453 19.369141C16.339583 19.375916 16.361323 19.38819 16.386719 19.394531C16.386719 19.394531 16.388672 19.394531 16.388672 19.394531C16.748417 19.484086 17.128394 19.553492 17.527344 19.601562C17.927852 19.650059 18.339249 19.675704 18.755859 19.675781C19.231845 19.675737 19.705665 19.654348 20.175781 19.625C20.177067 19.62491 20.178402 19.62509 20.179688 19.625C23.247076 19.43303 26.012363 18.707565 27.619141 18.220703C27.993491 18.115 28.417202 18.0011 28.695312 17.916016C29.18367 18.460001 30.048381 19.415852 30.830078 20.28125C31.208285 20.701057 31.360878 20.871193 31.769531 21.322266C33.106598 22.796325 34.403687 24.213421 35.003906 24.828125C35.117439 24.944302 35.215584 25.060622 35.306641 25.175781C35.769794 25.773378 35.992089 26.432037 35.947266 27.037109C35.933118 27.196853 35.901665 27.347807 35.855469 27.488281C35.845339 27.519404 35.837971 27.551426 35.826172 27.582031C35.776241 27.713022 35.708201 27.834321 35.632812 27.951172C35.256989 28.49544 34.588046 28.804103 33.736328 28.806641 A 1.50015 1.50015 0 0 0 33.242188 28.894531C33.2329 28.897813 33.22405 28.900837 33.214844 28.904297 A 1.50015 1.50015 0 0 0 32.802734 29.136719C32.796555 29.141674 32.791257 29.147292 32.785156 29.152344 A 1.50015 1.50015 0 0 0 32.466797 29.515625C32.462489 29.522556 32.459277 29.5301 32.455078 29.537109 A 1.50015 1.50015 0 0 0 32.271484 30.003906C32.068484 30.983906 31.684906 31.655859 31.128906 32.005859C31.033248 32.065848 30.933909 32.113422 30.833984 32.154297C30.787774 32.169962 30.741914 32.187712 30.695312 32.201172C30.641742 32.218813 30.588535 32.236673 30.535156 32.25C30.470159 32.266144 30.409516 32.270704 30.345703 32.28125C30.20786 32.304029 30.072808 32.321168 29.949219 32.324219C29.884418 32.325719 29.822232 32.326242 29.763672 32.324219C29.676846 32.32093 29.599295 32.31611 29.53125 32.308594C29.396192 32.291618 29.242187 32.269531 29.242188 32.269531 A 1.50015 1.50015 0 0 0 28.927734 32.220703C28.911333 32.219821 28.895298 32.219097 28.878906 32.21875 A 1.50015 1.50015 0 0 0 28.59375 32.240234C28.5787 32.242794 28.563793 32.24503 28.548828 32.248047 A 1.50015 1.50015 0 0 0 28.269531 32.333984C28.258911 32.338414 28.24881 32.342976 28.238281 32.347656 A 1.50015 1.50015 0 0 0 27.958984 32.507812C27.957797 32.508686 27.956263 32.508888 27.955078 32.509766C27.951332 32.512537 27.949029 32.516728 27.945312 32.519531 A 1.50015 1.50015 0 0 0 27.714844 32.734375C27.709355 32.740715 27.704596 32.74748 27.699219 32.753906 A 1.50015 1.50015 0 0 0 27.535156 32.994141C27.525837 33.011101 27.51647 33.027612 27.507812 33.044922 A 1.50015 1.50015 0 0 0 27.400391 33.322266C27.398803 33.328097 27.398003 33.333989 27.396484 33.339844 A 1.50015 1.50015 0 0 0 27.347656 33.669922C27.347656 33.669922 27.347656 33.671875 27.347656 33.671875C27.347583 33.673007 27.321418 33.850809 27.294922 34.011719C27.279706 34.09569 27.259304 34.19002 27.232422 34.294922C27.217919 34.351582 27.200177 34.408261 27.181641 34.46875C27.129409 34.636939 27.059281 34.81514 26.96875 34.992188C26.954046 35.020888 26.945563 35.049714 26.929688 35.078125C26.811331 35.290537 26.661947 35.494037 26.46875 35.662109C25.98475 36.082109 25.293469 36.236766 24.355469 36.134766 A 1.50015 1.50015 0 0 0 23.525391 36.283203 A 1.50015 1.50015 0 0 0 23.523438 36.283203 A 1.50015 1.50015 0 0 0 23.097656 36.601562C23.089109 36.610663 23.08059 36.619587 23.072266 36.628906 A 1.50015 1.50015 0 0 0 22.927734 36.818359C22.91894 36.832101 22.912658 36.847265 22.904297 36.861328 A 1.50015 1.50015 0 0 0 22.794922 37.080078C22.793427 37.083912 22.792481 37.087946 22.791016 37.091797 A 1.50015 1.50015 0 0 0 22.714844 37.361328C22.714844 37.361328 22.714844 37.363281 22.714844 37.363281C22.712449 37.376633 22.707587 37.387216 22.705078 37.400391C22.51239 38.402231 21.913339 38.839851 21.390625 39.039062C21.266022 39.082989 21.143179 39.128558 21.003906 39.15625C20.979882 39.161107 20.958172 39.167626 20.933594 39.171875C20.878194 39.181519 20.819318 39.185177 20.761719 39.191406C20.693812 39.198836 20.625908 39.208313 20.554688 39.210938C20.488799 39.213139 20.419558 39.209304 20.351562 39.207031C20.285568 39.205098 20.220453 39.203584 20.152344 39.197266C20.064415 39.18873 19.97514 39.174415 19.884766 39.158203C19.84003 39.150372 19.795377 39.140685 19.75 39.130859C19.650619 39.108922 19.550505 39.082421 19.449219 39.050781C19.400602 39.035729 19.351829 39.019419 19.302734 39.001953C19.20437 38.966766 19.10505 38.927632 19.005859 38.882812C18.948106 38.856688 18.890126 38.826564 18.832031 38.796875C18.742725 38.751379 18.653654 38.704155 18.564453 38.650391C18.49225 38.606616 18.419922 38.555575 18.347656 38.505859C18.264708 38.449136 18.181761 38.394467 18.099609 38.330078C17.951632 38.213443 17.80404 38.08762 17.658203 37.943359C16.353203 36.654359 12.090141 32.311484 8.7441406 28.896484C8.7441406 28.896484 8.7441406 28.894531 8.7441406 28.894531C8.6148369 28.76248 8.4785056 28.636821 8.3378906 28.519531C7.633453 27.929505 6.8024689 27.533788 5.9082031 27.355469C5.7319126 27.319845 5.5529791 27.291684 5.3730469 27.273438C5.3711188 27.273247 5.369116 27.273626 5.3671875 27.273438C5.1852972 27.255186 5.0026967 27.246094 4.8183594 27.246094L3.5 27.246094 A 1.50015 1.50015 0 1 0 3.5 30.246094L4.8183594 30.246094C5.4963594 30.246094 6.1295625 30.512141 6.6015625 30.994141C8.9392557 33.380848 14.052551 38.597365 15.548828 40.076172C15.548828 40.076172 15.550781 40.076172 15.550781 40.076172C15.572151 40.097292 15.595666 40.113952 15.617188 40.134766C15.801492 40.313286 15.989841 40.482108 16.185547 40.638672C16.226631 40.671542 16.269055 40.700565 16.310547 40.732422C16.485435 40.866688 16.663564 40.992721 16.845703 41.109375C16.908665 41.149697 16.971512 41.18843 17.035156 41.226562C17.192487 41.320874 17.352238 41.407124 17.513672 41.488281C17.595708 41.529465 17.676937 41.571696 17.759766 41.609375C17.943224 41.693006 18.129332 41.765453 18.316406 41.832031C18.360178 41.847555 18.403362 41.866291 18.447266 41.880859C18.939162 42.044728 19.438486 42.148937 19.939453 42.191406C19.971424 42.194092 20.003206 42.195084 20.035156 42.197266C20.173214 42.206787 20.311548 42.21875 20.449219 42.21875C20.50818 42.21875 20.566157 42.206843 20.625 42.205078C20.75551 42.2012 20.884301 42.188287 21.013672 42.175781C21.150119 42.162476 21.286725 42.152037 21.421875 42.128906C21.44836 42.124417 21.475544 42.124003 21.501953 42.119141C21.660502 42.089946 21.81452 42.046676 21.96875 42.001953C22.035214 41.983572 22.103992 41.975991 22.169922 41.955078C23.592922 41.504078 24.697109 40.493344 25.287109 39.152344C26.803109 39.057344 27.8165 38.467734 28.4375 37.927734C28.694781 37.703826 28.908818 37.459756 29.101562 37.210938 A 1.5001987 1.5001987 0 0 0 29.138672 37.212891C29.138672 37.212891 33.652598 37.291611 36.164062 37.212891C37.911175 37.158701 39.672501 36.563766 41.226562 35.201172L41.226562 35.203125C41.927622 34.588863 42.770995 34.246094 43.628906 34.246094L44.5 34.246094 A 1.50015 1.50015 0 1 0 44.5 31.246094L43.628906 31.246094C41.974817 31.246094 40.43894 31.903575 39.25 32.945312C38.158062 33.90272 37.291155 34.175083 36.072266 34.212891 A 1.50015 1.50015 0 0 0 36.070312 34.212891C35.27821 34.237755 34.175978 34.232741 33.136719 34.232422C33.926854 33.612277 34.527453 32.771387 34.910156 31.691406C36.588156 31.355406 37.943125 30.307969 38.578125 28.792969C38.593636 28.755943 38.60068 28.716941 38.615234 28.679688C38.629939 28.642861 38.65047 28.609757 38.664062 28.572266C38.695684 28.48505 38.711889 28.393503 38.738281 28.304688C38.777258 28.175076 38.815776 28.045577 38.84375 27.914062C38.860337 27.833936 38.870271 27.752889 38.882812 27.671875C38.912874 27.485067 38.938695 27.298279 38.947266 27.109375C38.947598 27.100992 38.946974 27.092372 38.947266 27.083984C38.998265 25.818972 38.578882 24.524333 37.720703 23.394531C37.657718 23.311054 37.57947 23.233901 37.511719 23.152344C37.393583 23.010804 37.282493 22.865656 37.150391 22.730469C36.477166 22.040787 34.778646 20.177561 33.240234 18.476562C33.23486 18.470623 33.23584 18.470779 33.230469 18.464844C31.688844 16.760219 30.30875 15.220453 30.28125 15.189453C30.274942 15.18239 30.266188 15.178797 30.259766 15.171875 A 1.50015 1.50015 0 0 0 29.962891 14.925781C29.952858 14.919455 29.943759 14.912326 29.933594 14.90625 A 1.50015 1.50015 0 0 0 29.5625 14.75C29.550481 14.746674 29.539442 14.741308 29.527344 14.738281 A 1.50015 1.50015 0 0 0 29.138672 14.695312C29.122811 14.695565 29.107674 14.694556 29.091797 14.695312 A 1.50015 1.50015 0 0 0 28.691406 14.769531C28.686338 14.771205 28.68084 14.769754 28.675781 14.771484C28.67263 14.772573 28.492932 14.829165 28.455078 14.841797C27.858112 15.036214 22.722605 16.675247 18.755859 16.675781C18.755859 16.675781 18.753906 16.675781 18.753906 16.675781C18.466099 16.675708 18.18365 16.658879 17.910156 16.626953C17.910156 16.626953 17.908203 16.626953 17.908203 16.626953C17.634767 16.594953 17.368674 16.54627 17.113281 16.482422C17.098784 16.478818 17.088243 16.472705 17.074219 16.46875C16.978824 16.442172 16.898652 16.405938 16.822266 16.367188C16.507386 16.196507 16.358514 15.925062 16.291016 15.703125C16.269399 15.622465 16.247849 15.541666 16.238281 15.453125C16.23698 15.44098 16.237476 15.413929 16.236328 15.398438C16.230976 15.328173 16.234422 15.260742 16.238281 15.193359C16.24419 15.11544 16.257996 15.030335 16.283203 14.939453C16.287104 14.925104 16.290465 14.910609 16.294922 14.896484C16.325663 14.8002 16.376291 14.702096 16.441406 14.607422C16.460102 14.58151 16.474549 14.553841 16.496094 14.529297C16.520332 14.500355 16.547426 14.472788 16.576172 14.445312C16.654138 14.374093 16.74332 14.305274 16.851562 14.25L21.546875 12.300781 A 1.50015 1.50015 0 0 0 21.548828 12.300781 A 1.50015 1.50015 0 0 0 21.636719 12.257812C21.651606 12.250369 21.667045 12.244176 21.681641 12.236328 A 1.50015 1.50015 0 0 0 21.689453 12.232422C21.700928 12.22618 21.71336 12.221272 21.724609 12.214844L22.125 11.982422L22.130859 11.978516 A 1.50015 1.50015 0 0 0 22.132812 11.978516L26.845703 9.25C27.958703 8.694 29.180109 8.6341719 30.287109 9.0761719L30.521484 9.1699219L32.945312 6.9082031L31.402344 6.2910156C30.444844 5.9075156 29.442594 5.7408437 28.433594 5.7929688 z M 37.15625 6.8359375C36.40225 6.7889375 35.697344 7.0749375 35.152344 7.5859375L29.625 12.740234C30.447 12.850234 31.213484 13.232422 31.771484 13.857422C31.922484 14.025422 32.084953 14.206578 32.251953 14.392578L36.072266 10.830078C36.648488 11.179779 37.363821 11.205272 37.962891 10.896484L43.380859 16.705078C43.029867 17.282284 43.006099 17.999579 43.316406 18.599609L39.378906 22.271484C40.034906 23.154484 40.482422 24.118375 40.732422 25.109375L46.488281 19.740234L46.490234 19.740234C47.616234 18.687234 47.677 16.912156 46.625 15.785156L39.103516 7.7226562C38.594516 7.1766562 37.90225 6.8619375 37.15625 6.8359375 z M 33.476562 15.009766C33.267562 15.015891 33.061422 15.036906 32.857422 15.066406C34.936422 17.379406 37.714078 20.449938 38.580078 21.335938C38.627078 21.383937 38.663984 21.436375 38.708984 21.484375C38.815984 21.047375 38.879609 20.594094 38.849609 20.121094C38.770609 18.908094 38.239516 17.717578 37.353516 16.767578C36.468516 15.818578 35.318281 15.205969 34.113281 15.042969C33.898281 15.013969 33.685563 15.003641 33.476562 15.009766 z" fill="#424242" />
</svg>