<svg xmlns="http://www.w3.org/2000/svg" viewBox="0 0 50 50">
  <path d="M6 4C4.84 4 4 4.84 4 6L4 22C4 23.16 4.84 24 6 24L22 24C23.16 24 24 23.16 24 22L24 6C24 4.84 23.16 4 22 4L6 4 z M 28 4C27.477778 4 26.94539 4.1913289 26.568359 4.5683594C26.191329 4.9453899 26 5.4777778 26 6L26 22C26 22.522222 26.191329 23.05461 26.568359 23.431641C26.94539 23.808671 27.477778 24 28 24L44 24C44.522222 24 45.05461 23.808671 45.431641 23.431641C45.808671 23.05461 46 22.522222 46 22L46 6C46 5.4777778 45.808671 4.9453899 45.431641 4.5683594C45.05461 4.1913289 44.522222 4 44 4L28 4 z M 28 6L44 6L44 22L28 22L28 6 z M 32.980469 25.990234 A 1.0001 1.0001 0 0 0 32.869141 26L28 26C27.477778 26 26.94539 26.191329 26.568359 26.568359C26.191329 26.94539 26 27.477778 26 28L26 32.847656 A 1.0001 1.0001 0 0 0 26 33.179688L26 38.847656 A 1.0001 1.0001 0 0 0 26 39.179688L26 44C26 44.522222 26.191329 45.05461 26.568359 45.431641C26.94539 45.808671 27.477778 46 28 46L32.824219 46 A 1.0001 1.0001 0 0 0 33.152344 46L38.824219 46 A 1.0001 1.0001 0 0 0 39.152344 46L44 46C44.522222 46 45.05461 45.808671 45.431641 45.431641C45.808671 45.05461 46 44.522222 46 44L46 39.126953 A 1.0001 1.0001 0 0 0 46 38.851562L46 33.126953 A 1.0001 1.0001 0 0 0 46 32.851562L46 28C46 27.477778 45.808671 26.94539 45.431641 26.568359C45.05461 26.191329 44.522222 26 44 26L39.146484 26 A 1.0001 1.0001 0 0 0 38.980469 25.990234 A 1.0001 1.0001 0 0 0 38.869141 26L33.146484 26 A 1.0001 1.0001 0 0 0 32.980469 25.990234 z M 6 26C4.84 26 4 26.84 4 28L4 44C4 45.16 4.84 46 6 46L22 46C23.16 46 24 45.16 24 44L24 28C24 26.84 23.16 26 22 26L6 26 z M 28 28L30.585938 28L28 30.585938L28 28 z M 33.414062 28L36.585938 28L28 36.585938L28 33.414062L33.414062 28 z M 39.414062 28L42.585938 28L28 42.585938L28 39.414062L39.414062 28 z M 44 29.414062L44 32.585938L32.585938 44L29.414062 44L44 29.414062 z M 10 30C11.1 30 12 30.9 12 32C12 33.1 11.1 34 10 34C8.9 34 8 33.1 8 32C8 30.9 8.9 30 10 30 z M 18 30C19.1 30 20 30.9 20 32C20 33.1 19.1 34 18 34C16.9 34 16 33.1 16 32C16 30.9 16.9 30 18 30 z M 44 35.414062L44 38.585938L38.585938 44L35.414062 44L44 35.414062 z M 10 38C11.1 38 12 38.9 12 40C12 41.1 11.1 42 10 42C8.9 42 8 41.1 8 40C8 38.9 8.9 38 10 38 z M 18 38C19.1 38 20 38.9 20 40C20 41.1 19.1 42 18 42C16.9 42 16 41.1 16 40C16 38.9 16.9 38 18 38 z M 44 41.414062L44 44L41.414062 44L44 41.414062 z" fill="#424242" />
</svg>