<svg xmlns="http://www.w3.org/2000/svg" viewBox="0 0 48 48">
  <path d="M10.486328 4.9785156 A 1.50015 1.50015 0 0 0 9.4394531 5.4394531L6.4394531 8.4394531 A 1.50015 1.50015 0 0 0 6.4394531 10.560547L9.4394531 13.560547 A 1.50015 1.50015 0 1 0 11.560547 11.439453L11.121094 11L26.878906 11L26.439453 11.439453 A 1.50015 1.50015 0 1 0 28.560547 13.560547L31.560547 10.560547 A 1.50015 1.50015 0 0 0 31.560547 8.4394531L28.560547 5.4394531 A 1.50015 1.50015 0 0 0 27.484375 4.984375 A 1.50015 1.50015 0 0 0 26.439453 7.5605469L26.878906 8L11.121094 8L11.560547 7.5605469 A 1.50015 1.50015 0 0 0 10.486328 4.9785156 z M 38.478516 16 A 1.50015 1.50015 0 0 0 37.439453 16.439453L34.439453 19.439453 A 1.50015 1.50015 0 1 0 36.560547 21.560547L37 21.121094L37 37.878906L36.560547 37.439453 A 1.50015 1.50015 0 1 0 34.439453 39.560547L37.439453 42.560547 A 1.50015 1.50015 0 0 0 39.560547 42.560547L42.560547 39.560547 A 1.50015 1.50015 0 1 0 40.439453 37.439453L40 37.878906L40 21.121094L40.439453 21.560547 A 1.50015 1.50015 0 1 0 42.560547 19.439453L39.560547 16.439453 A 1.50015 1.50015 0 0 0 38.478516 16 z M 11.5 17C8.4802259 17 6 19.480226 6 22.5L6 36.5C6 39.519774 8.4802259 42 11.5 42L25.5 42C28.519774 42 31 39.519774 31 36.5L31 22.5C31 19.480226 28.519774 17 25.5 17L11.5 17 z M 11.5 20L25.5 20C26.898226 20 28 21.101774 28 22.5L28 36.5C28 37.898226 26.898226 39 25.5 39L11.5 39C10.101774 39 9 37.898226 9 36.5L9 22.5C9 21.101774 10.101774 20 11.5 20 z" fill="#5B5B5B" />
</svg>