<svg xmlns="http://www.w3.org/2000/svg" viewBox="0 0 48 48">
  <path d="M3.4765625 6.9785156 A 1.50015 1.50015 0 0 0 2 8.5L2 27.5L2 34.5L2 37.5 A 1.50015 1.50015 0 1 0 5 37.5L5 36L43 36L43 37.5 A 1.50015 1.50015 0 1 0 46 37.5L46 34.5L46 29.5C46 27.585045 44.414955 26 42.5 26L42.072266 26C42.608497 25.102808 43 24.113933 43 23C43 19.704135 40.295865 17 37 17L21 17C19.314138 17 17.784921 17.709479 16.691406 18.841797C16.666963 18.813075 16.646256 18.782214 16.621094 18.753906C15.679518 17.694633 14.208333 17 12.5 17C10.791667 17 9.3204818 17.694633 8.3789062 18.753906C7.4373309 19.813179 7 21.166667 7 22.5C7 23.733488 7.380091 24.980916 8.1816406 26L5 26L5 8.5 A 1.50015 1.50015 0 0 0 3.4765625 6.9785156 z M 12.5 20C13.458333 20 13.987149 20.305367 14.378906 20.746094C14.770664 21.186821 15 21.833333 15 22.5C15 23.166667 14.770664 23.813179 14.378906 24.253906C13.987149 24.694633 13.458333 25 12.5 25C11.541667 25 11.012851 24.694633 10.621094 24.253906C10.229336 23.813179 10 23.166667 10 22.5C10 21.833333 10.229336 21.186821 10.621094 20.746094C11.012851 20.305367 11.541667 20 12.5 20 z M 21 20L37 20C38.674135 20 40 21.325865 40 23C40 24.674135 38.674135 26 37 26L18 26L18 23C18 21.325865 19.325865 20 21 20 z M 5 29L16.5 29L37 29L42.5 29C42.795045 29 43 29.204955 43 29.5L43 33L5 33L5 29 z" fill="#5B5B5B" />
</svg>