<svg xmlns="http://www.w3.org/2000/svg" viewBox="0 0 24 24">
  <path d="M6 2C4.895 2 4 2.895 4 4L4 20C4 21.105 4.895 22 6 22L17 22C15.346 22 14 20.654 14 19C14 18.648 14.071594 18.314 14.183594 18L9 18C8.448 18 8 17.552 8 17C8 16.448 8.448 16 9 16L18 16L18 15C18 14.448 18.448 14 19 14L20 14L20 8.828125C20 8.298125 19.789062 7.7890625 19.414062 7.4140625L14.585938 2.5859375C14.210937 2.2109375 13.701875 2 13.171875 2L6 2 z M 13 3.4550781L18.5 9L14 9C13.448 9 13 8.552 13 8L13 3.4550781 z M 9 12L15 12C15.552 12 16 12.448 16 13C16 13.552 15.552 14 15 14L9 14C8.448 14 8 13.552 8 13C8 12.448 8.448 12 9 12 z M 20.724609 15.802734C20.646687 15.810219 20.569141 15.830328 20.494141 15.861328C20.195141 15.985328 20 16.276609 20 16.599609L20 18L17 18C16.448 18 16 18.448 16 19C16 19.552 16.448 20 17 20L20 20L20 21.400391C20 21.723391 20.195141 22.014672 20.494141 22.138672C20.593141 22.179672 20.697781 22.199219 20.800781 22.199219C21.008781 22.199219 21.212234 22.119797 21.365234 21.966797L23.765625 19.566406C24.077625 19.253406 24.077625 18.746594 23.765625 18.433594L21.365234 16.033203C21.193484 15.861453 20.958375 15.780281 20.724609 15.802734 z" fill="#424242" />
</svg>