<svg xmlns="http://www.w3.org/2000/svg" viewBox="0 0 48 48">
  <path d="M24 5.0058594C22.854375 5.0058594 21.709406 5.3837187 20.753906 6.1367188L8.8574219 15.509766C7.0414219 16.939766 6 19.086437 6 21.398438L6 39.488281C6 41.418281 7.57 42.988281 9.5 42.988281L24.757812 42.988281C24.045813 42.076281 23.445141 41.072281 22.994141 39.988281L9.5 39.988281C9.224 39.988281 9 39.763281 9 39.488281L9 21.398438C9 20.010438 9.6248438 18.723234 10.714844 17.865234L22.609375 8.4921875C23.019375 8.1701875 23.51 8.0097656 24 8.0097656C24.49 8.0097656 24.980625 8.1711406 25.390625 8.4941406L37.285156 17.863281C38.375156 18.723281 39 20.011437 39 21.398438L39 22.632812C40.068 22.977812 41.073 23.461641 42 24.056641L42 21.398438C42 19.085438 40.958578 16.938812 39.142578 15.507812L27.246094 6.1367188C26.290094 5.3827188 25.145625 5.0058594 24 5.0058594 z M 14.5 23.988281 A 1.50015 1.50015 0 0 0 13 25.488281L13 33.488281 A 1.50015 1.50015 0 0 0 14.5 34.988281L20.5 34.988281 A 1.50015 1.50015 0 0 0 22 33.488281L22 25.488281 A 1.50015 1.50015 0 0 0 20.5 23.988281L14.5 23.988281 z M 35 24C28.925 24 24 28.925 24 35C24 41.075 28.925 46 35 46C41.075 46 46 41.075 46 35C46 28.925 41.075 24 35 24 z M 16 26.988281L19 26.988281L19 31.988281L16 31.988281L16 26.988281 z M 35 27C35.553 27 36 27.448 36 28L36 29.015625C37.544 29.093625 38.528844 29.975031 38.839844 30.457031C39.139844 30.921031 39.006969 31.540844 38.542969 31.839844C38.077969 32.136844 37.458156 32.006969 37.160156 31.542969C37.157156 31.542969 36.726109 31 35.787109 31L34.25 31C33.423 31 32.75 31.673 32.75 32.5C32.75 33.327 33.423 34 34.25 34L36 34C37.93 34 39.5 35.57 39.5 37.5C39.5 39.43 37.93 41 36 41L36 42C36 42.552 35.553 43 35 43C34.447 43 34 42.552 34 42L34 40.996094C32.756 40.987094 31.617969 40.532031 30.792969 39.707031C30.401969 39.316031 30.401969 38.685922 30.792969 38.294922C31.183969 37.903922 31.816031 37.903922 32.207031 38.294922C32.529031 38.615922 33.108109 39 34.037109 39L36 39C36.827 39 37.5 38.327 37.5 37.5C37.5 36.673 36.827 36 36 36L34.25 36C32.32 36 30.75 34.43 30.75 32.5C30.75 30.656 32.189 29.156391 34 29.025391L34 28C34 27.448 34.447 27 35 27 z" fill="#FFFFFF" />
</svg>