<svg xmlns="http://www.w3.org/2000/svg" viewBox="0 0 24 24">
  <path d="M22.794,11.106l0.003-0.008L12.71,2.296v0.001C12.528,2.114,12.278,2,12,2s-0.528,0.114-0.71,0.297V2.296L1.203,11.098 l0.003,0.008C1.084,11.198,1,11.336,1,11.5C1,11.776,1.224,12,1.5,12H4v8c0,0.552,0.448,1,1,1h14c0.552,0,1-0.448,1-1v-8h2.5 c0.276,0,0.5-0.224,0.5-0.5C23,11.336,22.916,11.198,22.794,11.106z M12,9c1.105,0,2,0.895,2,2c0,1.105-0.895,2-2,2s-2-0.895-2-2 C10,9.895,10.895,9,12,9z M15.5,17h-7C8.224,17,8,16.776,8,16.5v-0.199c0-1.33,2.22-2.051,4-2.051s4,0.721,4,2.051V16.5 C16,16.776,15.776,17,15.5,17z" fill="#FFFFFF" />
</svg>