<svg xmlns="http://www.w3.org/2000/svg" viewBox="0 0 24 24">
  <path d="M20 0C17.789063 0 16 1.789063 16 4C16 4.277344 16.039063 4.550781 16.09375 4.8125L7 9.375C6.265625 8.535156 5.203125 8 4 8C1.789063 8 0 9.789063 0 12C0 14.210938 1.789063 16 4 16C5.203125 16 6.265625 15.464844 7 14.625L16.09375 19.1875C16.039063 19.449219 16 19.722656 16 20C16 22.210938 17.789063 24 20 24C22.210938 24 24 22.210938 24 20C24 17.789063 22.210938 16 20 16C18.796875 16 17.734375 16.535156 17 17.375L7.90625 12.8125C7.960938 12.550781 8 12.277344 8 12C8 11.722656 7.960938 11.449219 7.90625 11.1875L17 6.625C17.734375 7.464844 18.796875 8 20 8C22.210938 8 24 6.210938 24 4C24 1.789063 22.210938 0 20 0Z" fill="#424242" />
</svg>