<svg xmlns="http://www.w3.org/2000/svg" viewBox="0 0 30 30">
  <path d="M2.984375 7.9863281 A 1.0001 1.0001 0 0 0 2 9L2 26 A 1.0001 1.0001 0 1 0 4 26L4 25L26 25L26 26 A 1.0001 1.0001 0 1 0 28 26L28 21 A 1.0001 1.0001 0 0 0 26.984375 19.986328 A 1.0001 1.0001 0 0 0 26.839844 20L4 20L4 9 A 1.0001 1.0001 0 0 0 2.984375 7.9863281 z M 8.5 13 A 2.5 2.5 0 0 0 6 15.5 A 2.5 2.5 0 0 0 8.5 18 A 2.5 2.5 0 0 0 11 15.5 A 2.5 2.5 0 0 0 8.5 13 z M 13 13L13 18L27 18L27 16C27 14.343 25.657 13 24 13L13 13 z" fill="#424242" />
</svg>