<svg xmlns="http://www.w3.org/2000/svg" viewBox="0 0 48 48">
  <path d="M12 4C9.8087176 4 8 5.8087176 8 8L8 40C8 42.191282 9.8087176 44 12 44L25 44L25 41L12 41C11.429282 41 11 40.570718 11 40L11 8C11 7.4292824 11.429282 7 12 7L24 7L24 16C24 18.191282 25.808718 20 28 20L37 20L37 29L40 29L40 19.742188C40 18.549702 39.525348 17.404254 38.681641 16.560547L27.439453 5.3183594C26.596144 4.4735495 25.450798 4 24.257812 4L12 4 z M 27 9.1230469L34.876953 17L28 17C27.429282 17 27 16.570718 27 16L27 9.1230469 z M 30 31C28.456 31 27.199203 32.170875 27.033203 33.671875L37 38.871094L46.966797 33.671875C46.800797 32.170875 45.544 31 44 31L30 31 z M 27 35.910156L27 44C27 45.657 28.343 47 30 47L44 47C45.657 47 47 45.657 47 44L47 35.910156L37.462891 40.886719C37.316891 40.961719 37.159 41 37 41C36.841 41 36.683109 40.961719 36.537109 40.886719L27 35.910156 z" fill="#424242" />
</svg>