<svg xmlns="http://www.w3.org/2000/svg" viewBox="0 0 24 24">
  <path d="M13.992188 4.0097656C13.548523 4.0137856 13.106733 4.1107825 12.695312 4.3007812L11.160156 5.0097656 A 1.0001 1.0001 0 0 0 11 5L2 5L2 15L3 15L9.0761719 20.316406C9.5743021 20.753058 10.215683 20.992187 10.876953 20.992188C11.600572 20.992186 12.297789 20.702211 12.808594 20.191406L12.810547 20.191406L15.990234 17 A 1.0001 1.0001 0 0 0 16 17L23 17L23 4.6132812L19.048828 5.9296875L15.294922 4.2773438C14.879888 4.0946705 14.43585 4.0057464 13.992188 4.0097656 z M 14.009766 6.0097656C14.172887 6.0079923 14.337268 6.0400973 14.490234 6.1074219L18.951172 8.0703125L21 7.3886719L21 15L17.982422 15L18.171875 14.810547C19.303296 13.676038 19.235751 11.784187 18.029297 10.730469L14.207031 7.3925781L10.978516 8.5703125L10.976562 8.5703125C10.522439 8.7358694 10.035496 8.5444151 9.8125 8.1152344L9.6953125 7.890625L13.533203 6.1171875C13.684783 6.0471864 13.846644 6.011539 14.009766 6.0097656 z M 4 7L6.9785156 7L8.0371094 9.0371094C8.7161134 10.343929 10.278279 10.953662 11.662109 10.449219L13.78125 9.6757812L16.714844 12.236328C17.07239 12.54861 17.090433 13.062945 16.755859 13.398438L16.753906 13.398438L11.394531 18.777344C11.251336 18.920539 11.079334 18.992188 10.876953 18.992188C10.698223 18.992188 10.528401 18.929848 10.394531 18.8125L4 13.216797L4 7 z" fill="#424242" />
</svg>